<svg id="emoji" viewBox="0 0 72 72" xmlns="http://www.w3.org/2000/svg">
    <g fill="#d0cfce">
        <path transform="translate(0 .408)" d="m5 18.09h62v35.82h-62z"/>
        <rect x="9" y="25" width="3" height="3" fill="#9b9b9a" fillRule="evenodd" stroke="#9b9b9a" strokeLinecap="round" strokeLinejoin="round" strokeWidth="2" opacity="0.999"/>
        <rect x="60" y="25" width="3" height="3" fill="#9b9b9a" fillRule="evenodd" stroke="#9b9b9a" strokeLinecap="round" strokeLinejoin="round" strokeWidth="2" opacity="0.999"/>
        <rect x="16.29" y="25" width="3" height="3" fill="#9b9b9a" fillRule="evenodd" stroke="#9b9b9a" strokeLinecap="round" strokeLinejoin="round" strokeWidth="2" opacity="0.999"/>
        <rect x="23.57" y="25" width="3" height="3" fill="#9b9b9a" fillRule="evenodd" stroke="#9b9b9a" strokeLinecap="round" strokeLinejoin="round" strokeWidth="2" opacity="0.999"/>
        <rect x="30.86" y="25" width="3" height="3" fill="#9b9b9a" fillRule="evenodd" stroke="#9b9b9a" strokeLinecap="round" strokeLinejoin="round" strokeWidth="2" opacity="0.999"/>
        <rect x="38.14" y="25" width="3" height="3" fill="#9b9b9a" fillRule="evenodd" stroke="#9b9b9a" strokeLinecap="round" strokeLinejoin="round" strokeWidth="2" opacity="0.999"/>
        <rect x="45.43" y="25" width="3" height="3" fill="#9b9b9a" fillRule="evenodd" stroke="#9b9b9a" strokeLinecap="round" strokeLinejoin="round" strokeWidth="2" opacity="0.999"/>
        <rect x="52.71" y="25" width="3" height="3" fill="#9b9b9a" fillRule="evenodd" stroke="#9b9b9a" strokeLinecap="round" strokeLinejoin="round" strokeWidth="2" opacity="0.999"/>
        <rect x="20.5" y="34.5" width="3" height="3" fill="#9b9b9a" fillRule="evenodd" stroke="#9b9b9a" strokeLinecap="round" strokeLinejoin="round" strokeWidth="2" opacity="0.999"/>
        <rect x="48.5" y="34.5" width="3" height="3" fill="#9b9b9a" fillRule="evenodd" stroke="#9b9b9a" strokeLinecap="round" strokeLinejoin="round" strokeWidth="2" opacity="0.999"/>
        <rect x="9" y="44" width="3" height="3" fill="#9b9b9a" fillRule="evenodd" stroke="#9b9b9a" strokeLinecap="round" strokeLinejoin="round" strokeWidth="2" opacity="0.999"/>
        <rect x="16" y="44" width="3" height="3" fill="#9b9b9a" fillRule="evenodd" stroke="#9b9b9a" strokeLinecap="round" strokeLinejoin="round" strokeWidth="2" opacity="0.999"/>
        <rect x="53" y="44" width="3" height="3" fill="#9b9b9a" fillRule="evenodd" stroke="#9b9b9a" strokeLinecap="round" strokeLinejoin="round" strokeWidth="2" opacity="0.999"/>
        <rect x="60" y="44" width="3" height="3" fill="#9b9b9a" fillRule="evenodd" stroke="#9b9b9a" strokeLinecap="round" strokeLinejoin="round" strokeWidth="2" opacity="0.999"/>
        <rect x="41.5" y="34.5" width="3" height="3" fill="#9b9b9a" fillRule="evenodd" stroke="#9b9b9a" strokeLinecap="round" strokeLinejoin="round" strokeWidth="2" opacity="0.999"/>
        <rect x="34.5" y="34.5" width="3" height="3" fill="#9b9b9a" fillRule="evenodd" stroke="#9b9b9a" strokeLinecap="round" strokeLinejoin="round" strokeWidth="2" opacity="0.999"/>
        <rect x="27.5" y="34.5" width="3" height="3" fill="#9b9b9a" fillRule="evenodd" stroke="#9b9b9a" strokeLinecap="round" strokeLinejoin="round" strokeWidth="2" opacity="0.999"/>
        <rect x="22.93" y="44" width="26.14" height="3" fill="#9b9b9a" fillRule="evenodd" stroke="#9b9b9a" strokeLinecap="round" strokeLinejoin="round" strokeWidth="2" opacity="0.999"/>
        <rect x="9" y="34.5" width="7.5" height="3" fill="#9b9b9a" fillRule="evenodd" stroke="#9b9b9a" strokeLinecap="round" strokeLinejoin="round" strokeWidth="2" opacity="0.999"/>
        <rect x="55.5" y="34.5" width="7.5" height="3" fill="#9b9b9a" fillRule="evenodd" stroke="#9b9b9a" strokeLinecap="round" strokeLinejoin="round" strokeWidth="2" opacity="0.999"/>
    </g>
    <g id="hair"/>
    <g id="skin"/>
    <g id="skin-shadow"/>
    <g fill="none" stroke="#000" strokeLinecap="round" strokeLinejoin="round" strokeMiterlimit="10" strokeWidth="2">
        <path d="m5 18.5h62v35h-62z"/>
        <path d="m9 47h3v-3"/>
        <path d="m22.93 47h26.14v-3"/>
        <path d="m16 47h3v-3"/>
        <path d="m53 47h3v-3"/>
        <path d="m60 47h3v-3"/>
        <path d="m55.5 37.5h7.5v-3"/>
        <path d="m16.29 28h3v-3"/>
        <path d="m23.57 28h3v-3"/>
        <path d="m30.86 28h3v-3"/>
        <path d="m38.14 28h3v-3"/>
        <path d="m45.43 28h3v-3"/>
        <path d="m52.71 28h3v-3"/>
        <path d="m60 28h3v-3"/>
        <path d="m9 28h3v-3"/>
        <path d="m9 37.5h7.5v-3"/>
        <path d="m48.5 37.5h3v-3"/>
        <path d="m41.5 37.5h3v-3"/>
        <path d="m34.5 37.5h3v-3"/>
        <path d="m27.5 37.5h3v-3"/>
        <path d="m20.5 37.5h3v-3"/>
    </g>
</svg>
